# xmcd
#
# Track frame offsets: 
#        150
#        17654
#        32002
#        43909
#        58814
#        71804
#        88846
#        106312
#        129115
#        148869
#        167083
#
# Disc length: 2389 seconds
#
# Revision: 0
# Processed by: cddbd v1.5.2PL0 Copyright (c) Steve Scherf et al.
# Submitted via: ExactAudioCopy v0.99pb5
#
DISCID=9b09530b
DTITLE=Eric Church - Chief
DYEAR=2011
DGENRE=Country Rock
TTITLE0=Creepin'
TTITLE1=Drink in my hand
TTITLE2=Keep on
TTITLE3=Like Jesus does
TTITLE4=Hungover and hard up
TTITLE5=Homeboy
TTITLE6=Country music Jesus
TTITLE7=Jack Daniels
TTITLE8=Springsteen
TTITLE9=I'm gettin' stoned
TTITLE10=Over when it's over
EXTD=
EXTT0=
EXTT1=
EXTT2=
EXTT3=
EXTT4=
EXTT5=
EXTT6=
EXTT7=
EXTT8=
EXTT9=
EXTT10=
PLAYORDER=
